<svg width="127" height="19" viewBox="0 0 127 19" fill="none" xmlns="http://www.w3.org/2000/svg">
<path d="M9.24494 0.255066L11.8641 5.89498L18.0374 6.64316L13.4829 10.877L14.679 16.9793L9.24494 13.9561L3.8109 16.9793L5.00697 10.877L0.452479 6.64316L6.62573 5.89498L9.24494 0.255066Z" fill="#FFC633"/>
<path d="M33.0467 0.255005L35.6659 5.89491L41.8392 6.6431L37.2847 10.8769L38.4807 16.9793L33.0467 13.956L27.6127 16.9793L28.8087 10.8769L24.2542 6.6431L30.4275 5.89491L33.0467 0.255005Z" fill="#FFC633"/>
<path d="M56.8489 0.255005L59.4681 5.89491L65.6414 6.6431L61.0869 10.8769L62.283 16.9793L56.8489 13.956L51.4149 16.9793L52.611 10.8769L48.0565 6.6431L54.2297 5.89491L56.8489 0.255005Z" fill="#FFC633"/>
<path d="M74.7642 16.9793L80.1982 13.9561V0.255066L77.579 5.89498L71.4058 6.64316L75.9603 10.877L74.7642 16.9793Z" fill="#FFC633"/>
<path d="M96.7402 9.624H95.9422V8.924L99.0362 5.872H94.2342V4.976H100.31V5.788L97.3142 8.77C99.1902 8.868 100.534 10.058 100.534 11.878C100.534 13.866 99.0782 15.168 97.0482 15.168C95.0742 15.168 93.7442 13.95 93.7442 11.948H94.7382C94.7382 13.39 95.6342 14.258 97.0482 14.258C98.5462 14.258 99.5122 13.306 99.5122 11.85C99.5122 10.478 98.5322 9.624 96.7402 9.624ZM102.989 15.154C102.513 15.154 102.107 14.762 102.107 14.3C102.107 13.824 102.513 13.418 102.989 13.418C103.465 13.418 103.871 13.824 103.871 14.3C103.871 14.762 103.465 15.154 102.989 15.154ZM108.51 15.168C106.494 15.168 105.206 13.908 105.206 11.934H106.214C106.214 13.376 107.096 14.244 108.524 14.244C110.036 14.244 111.016 13.236 111.016 11.752C111.016 10.352 110.106 9.246 108.524 9.246C107.6 9.246 106.76 9.666 106.214 10.268L105.416 10.016L106.62 4.976H111.464V5.9H107.348L106.592 9.05C107.152 8.602 107.88 8.35 108.664 8.35C110.75 8.35 112.038 9.848 112.038 11.724C112.038 13.74 110.61 15.168 108.51 15.168ZM113.564 15H112.612L116.518 4.976H117.498L113.564 15Z" fill="black"/>
<path d="M121.553 15.168C119.537 15.168 118.249 13.908 118.249 11.934H119.257C119.257 13.376 120.139 14.244 121.567 14.244C123.079 14.244 124.059 13.236 124.059 11.752C124.059 10.352 123.149 9.246 121.567 9.246C120.643 9.246 119.803 9.666 119.257 10.268L118.459 10.016L119.663 4.976H124.507V5.9H120.391L119.635 9.05C120.195 8.602 120.923 8.35 121.707 8.35C123.793 8.35 125.081 9.848 125.081 11.724C125.081 13.74 123.653 15.168 121.553 15.168Z" fill="black" fill-opacity="0.6"/>
</svg>
